<svg width="28" height="28" viewBox="0 0 28 28" fill="none" xmlns="http://www.w3.org/2000/svg">
<path d="M27 20.2433V25.5473C27.0002 25.927 26.8563 26.2927 26.5974 26.5706C26.3385 26.8484 25.9838 27.0177 25.605 27.0443C24.9495 27.0893 24.414 27.1133 24 27.1133C10.7445 27.1133 0 16.3688 0 3.11328C0 2.69928 0.0225 2.16378 0.069 1.50828C0.0955836 1.12945 0.264872 0.774797 0.542705 0.515894C0.820539 0.256991 1.18623 0.11311 1.566 0.113282H6.87C7.05606 0.113093 7.23554 0.18207 7.37359 0.306812C7.51164 0.431554 7.59839 0.603156 7.617 0.788282C7.6515 1.13328 7.683 1.40778 7.713 1.61628C8.0111 3.69667 8.622 5.72003 9.525 7.61778C9.6675 7.91778 9.5745 8.27628 9.3045 8.46828L6.0675 10.7813C8.04668 15.393 11.7218 19.0681 16.3335 21.0473L18.6435 17.8163C18.7379 17.6843 18.8757 17.5896 19.0327 17.5488C19.1898 17.5079 19.3562 17.5235 19.503 17.5928C21.4005 18.4941 23.4234 19.1035 25.503 19.4003C25.7115 19.4303 25.986 19.4633 26.328 19.4963C26.5129 19.5152 26.6841 19.6021 26.8085 19.7402C26.933 19.8782 27.0017 20.0575 27.0015 20.2433H27Z" fill="#EE4D30"/>
</svg>
