<svg width="31" height="31" viewBox="0 0 31 31" fill="none" xmlns="http://www.w3.org/2000/svg">
<path d="M0.50602 30.6133L2.53402 23.1613C1.19773 20.8706 0.495664 18.2653 0.50002 15.6133C0.50002 7.32878 7.21552 0.613281 15.5 0.613281C23.7845 0.613281 30.5 7.32878 30.5 15.6133C30.5 23.8978 23.7845 30.6133 15.5 30.6133C12.8492 30.6176 10.245 29.916 7.95502 28.5808L0.50602 30.6133ZM10.0865 8.57528C9.89281 8.58731 9.70353 8.63833 9.53002 8.72528C9.3673 8.81743 9.21876 8.93262 9.08902 9.06728C8.90902 9.23678 8.80702 9.38378 8.69752 9.52628C8.14314 10.2478 7.84493 11.1334 7.85002 12.0433C7.85302 12.7783 8.04502 13.4938 8.34502 14.1628C8.95852 15.5158 9.96802 16.9483 11.3015 18.2758C11.6225 18.5953 11.936 18.9163 12.2735 19.2148C13.9286 20.672 15.9009 21.7228 18.0335 22.2838L18.887 22.4143C19.1645 22.4293 19.442 22.4083 19.721 22.3948C20.1579 22.3722 20.5844 22.2539 20.9705 22.0483C21.2195 21.9163 21.3365 21.8503 21.545 21.7183C21.545 21.7183 21.6095 21.6763 21.7325 21.5833C21.935 21.4333 22.0595 21.3268 22.2275 21.1513C22.352 21.0223 22.46 20.8708 22.5425 20.6983C22.6595 20.4538 22.7765 19.9873 22.8245 19.5988C22.8605 19.3018 22.85 19.1398 22.8455 19.0393C22.8395 18.8788 22.706 18.7123 22.5605 18.6418L21.6875 18.2503C21.6875 18.2503 20.3825 17.6818 19.586 17.3188C19.502 17.2822 19.412 17.2613 19.3205 17.2573C19.2179 17.2467 19.1142 17.2583 19.0164 17.2911C18.9186 17.324 18.829 17.3774 18.7535 17.4478V17.4448C18.746 17.4448 18.6455 17.5303 17.561 18.8443C17.4988 18.9279 17.413 18.9911 17.3147 19.0259C17.2164 19.0606 17.11 19.0653 17.009 19.0393C16.9113 19.0131 16.8155 18.9801 16.7225 18.9403C16.5365 18.8623 16.472 18.8323 16.3445 18.7768L16.337 18.7738C15.4789 18.3991 14.6844 17.8931 13.982 17.2738C13.793 17.1088 13.6175 16.9288 13.4375 16.7548C12.8474 16.1896 12.3331 15.5503 11.9075 14.8528L11.819 14.7103C11.7555 14.6145 11.7041 14.5112 11.666 14.4028C11.609 14.1823 11.7575 14.0053 11.7575 14.0053C11.7575 14.0053 12.122 13.6063 12.2915 13.3903C12.4327 13.2108 12.5643 13.024 12.686 12.8308C12.863 12.5458 12.9185 12.2533 12.8255 12.0268C12.4055 11.0008 11.9705 9.97928 11.5235 8.96528C11.435 8.76428 11.1725 8.62028 10.934 8.59178C10.853 8.58278 10.772 8.57378 10.691 8.56778C10.4896 8.55777 10.2877 8.55978 10.0865 8.57378V8.57528Z" fill="#EE4D30"/>
</svg>
