<svg width="31" height="28" viewBox="0 0 31 28" fill="none" xmlns="http://www.w3.org/2000/svg">
<path d="M2 0.113281H29C29.3978 0.113281 29.7794 0.271316 30.0607 0.552621C30.342 0.833926 30.5 1.21546 30.5 1.61328V25.6133C30.5 26.0111 30.342 26.3926 30.0607 26.6739C29.7794 26.9552 29.3978 27.1133 29 27.1133H2C1.60218 27.1133 1.22064 26.9552 0.93934 26.6739C0.658035 26.3926 0.5 26.0111 0.5 25.6133V1.61328C0.5 1.21546 0.658035 0.833926 0.93934 0.552621C1.22064 0.271316 1.60218 0.113281 2 0.113281ZM15.59 13.1378L5.972 4.97028L4.0295 7.25628L15.6095 17.0888L26.981 7.24878L25.019 4.97928L15.5915 13.1378H15.59Z" fill="#EE4D30"/>
</svg>
